<svg width="53" height="52" viewBox="0 0 53 52" fill="none" xmlns="http://www.w3.org/2000/svg">
<path d="M9.83795 35.7565C8.34738 35.336 6.91451 34.763 5.60742 34.1388C5.09084 35.9364 4.69549 37.963 4.42356 40.2133C5.38987 40.4286 7.48307 40.8335 10.0066 40.9648C9.70757 39.0731 9.65045 37.3285 9.83777 35.7565H9.83795ZM15.8821 40.6282C15.5184 39.1728 15.4023 37.7593 15.5417 36.3853C13.9954 36.5218 12.425 36.3667 10.8944 36.0232C10.7556 37.5196 10.8673 39.183 11.2154 41.0016C12.7127 41.0189 14.3088 40.9219 15.8823 40.6282H15.8821ZM7.36972 20.0369C6.65282 18.5204 6.13735 16.9383 5.76471 15.4392C3.3527 16.5549 1.44132 17.8078 0.559615 18.422C0.993419 19.2559 2.00715 21.0918 3.49717 23.1052C4.7713 21.8241 6.06263 20.7979 7.36972 20.0369ZM6.395 14.0419C8.71253 13.3336 10.8398 12.9885 12.7669 13.0117C12.89 11.4306 13.2134 9.88154 13.6358 8.43926C10.8301 8.09542 8.23861 8.08411 5.70629 8.22413C5.70354 8.378 5.71196 8.60024 5.73082 8.86678C5.78082 9.88026 5.93245 11.8073 6.395 14.0421V14.0419ZM11.4027 41.9239C11.8403 43.8309 12.5404 45.9076 13.484 48.1393C14.7283 47.8201 16.5549 47.2744 18.5148 46.4276C17.4269 44.7443 16.6294 43.104 16.1282 41.5106C14.5318 41.8184 12.9185 41.9307 11.4027 41.9239ZM7.04927 28.3248C5.68779 27.2005 4.48087 25.9161 3.45011 24.6547C1.74089 26.68 0.539828 28.6171 0 29.5462C0.73851 30.1234 2.59551 31.5018 5.02455 32.7931C5.58306 31.09 6.25747 29.6007 7.04927 28.3247V28.3248ZM33.87 38.4049C33.6584 39.884 33.1769 41.3053 32.5358 42.6366C35.7199 43.8581 39.8768 44.2685 44.9819 43.8479C44.8872 41.6472 44.677 39.686 44.3707 37.9404C40.345 39.2729 36.8376 39.424 33.87 38.4049ZM38.0989 33.757C36.1361 33.8653 34.391 33.3251 32.9451 32.5866C33.6853 34.1516 34.0517 35.7723 33.9629 37.4853C38.3249 39.086 44.0471 37.8873 50.9902 33.9109C49.9781 31.9791 48.9647 30.3073 47.9552 28.8707C44.6968 31.9352 41.3985 33.5744 38.0989 33.757ZM29.4564 47.2998C31.2086 48.3446 33.2557 49.307 35.595 50.1834C36.4236 48.2024 37.0522 46.3807 37.5117 44.706C35.4921 44.4794 33.6995 44.0521 32.1218 43.4375C31.3544 44.8486 30.4229 46.1474 29.4564 47.2998ZM24.1449 44.2302C22.7964 45.2805 21.3175 46.1355 19.866 46.8256C20.9297 48.3406 22.2339 49.8957 23.7829 51.4877C24.7162 50.7581 26.3913 49.3541 28.0718 47.4897C26.5144 46.4748 25.2016 45.389 24.1449 44.2302ZM27.5723 40.5527C27.5637 40.567 27.5565 40.5816 27.5479 40.5939C26.8037 41.7544 25.8715 42.7677 24.8391 43.6601C25.8612 44.7771 27.1429 45.8247 28.6659 46.807C29.6111 45.6912 30.5241 44.4367 31.2756 43.0811C29.8299 42.4198 28.5944 41.5761 27.5723 40.5526V40.5527ZM21.6296 40.2793C21.5508 40.0796 21.4694 39.88 21.402 39.6776C21.3862 39.6321 21.3793 39.5863 21.365 39.5407C21.3533 39.548 21.3419 39.5537 21.3289 39.5608C19.9947 40.3885 18.5203 40.9502 17.0099 41.3166C17.4996 42.8475 18.2784 44.428 19.3421 46.0557C20.7721 45.3859 22.2322 44.5532 23.5538 43.5359C22.7202 42.5024 22.0793 41.4176 21.6294 40.2791L21.6296 40.2793ZM32.4926 32.3458C30.8061 31.3979 29.5906 30.2222 29.0182 29.6065C28.799 29.6151 28.4945 29.6132 28.1592 29.5766C28.0793 29.8856 27.9762 30.2149 27.8158 30.5899C27.8158 30.5899 27.3833 30.453 26.8894 30.175C26.831 30.1423 26.7722 30.1066 26.7133 30.0712C26.7076 30.0767 26.7019 30.0838 26.6946 30.0909C26.6946 30.0925 26.6935 30.0925 26.6935 30.0925C26.4959 30.3288 26.2568 30.577 25.9662 30.8391C25.9662 30.8391 25.5454 30.453 25.1819 29.8958C25.0471 29.96 24.8999 30.0211 24.7453 30.0807C24.569 30.1478 24.3827 30.2149 24.1797 30.2774C24.1797 30.2774 23.9548 29.7345 23.8647 29.0619C23.6613 29.0663 23.4423 29.0545 23.206 29.0348C23.0672 29.0218 22.937 29.0151 22.7852 28.9947C22.7852 28.9947 22.814 28.4388 23.0015 27.8146C22.7309 27.6893 22.4443 27.5394 22.1282 27.3371C22.118 27.3303 22.1095 27.3258 22.0995 27.3188C22.0995 27.3188 22.3514 26.8443 22.7739 26.3637C22.6177 26.1783 22.4573 25.9644 22.2943 25.7211C22.2483 25.6527 22.2024 25.584 22.1566 25.5101C22.1566 25.5101 22.6006 25.1736 23.2047 24.9141C23.1176 24.6079 23.0429 24.2702 22.9931 23.8638C22.9931 23.8638 23.6942 23.7154 24.4631 23.7842C24.5721 23.4307 24.7307 23.0387 24.9684 22.5968C24.9684 22.5968 25.4097 22.7805 25.8916 23.1182C26.0667 21.8383 26.5258 16.7855 23.7944 13.2582C23.0242 12.2662 22.0506 11.4182 20.8742 10.7123C20.5679 11.4819 20.3256 12.2746 20.1799 13.0884C20.0367 13.8924 19.9563 14.7146 19.955 15.5429C22.768 18.104 23.7314 23.06 23.7717 23.2509C23.5181 22.4084 22.4186 19.2232 20.0209 16.8601C20.2141 18.7356 20.851 20.5884 22.1196 22.2403C20.6017 20.265 19.5942 18.265 19.2621 16.1755C18.7739 15.7808 18.2441 15.4231 17.6644 15.1238C16.4631 14.5052 15.1136 14.1444 13.6274 14.0248C13.5959 15.2663 13.7105 16.5062 14.0295 17.7033C14.0985 17.9616 14.1842 18.218 14.2674 18.473C18.3014 19.0728 21.9837 23.2037 21.899 23.1021C21.1775 22.4609 18.237 20.0522 14.6384 19.4748C14.9101 20.1361 15.2383 20.776 15.6232 21.3889C15.8407 21.7351 16.0782 22.0717 16.3359 22.3964C16.5007 22.6033 16.6655 22.8115 16.8471 23.0082C16.9718 23.0168 17.0907 23.0325 17.2135 23.0451C19.3924 23.279 21.8004 24.2939 21.942 24.3508C21.401 24.1883 19.9107 23.7977 18.0568 23.6963C17.8806 23.6866 17.7017 23.6822 17.5201 23.6793L19.6715 25.1803C18.7854 24.7198 17.9766 24.2184 17.2436 23.6739C15.6017 23.6695 13.7735 23.9389 12.107 24.7885C13.2696 25.7278 14.5909 26.5015 16.0454 26.9821C16.2086 27.0363 16.375 27.0891 16.5422 27.136C18.5594 26.4104 21.172 26.2235 21.3294 26.2095C20.7568 26.3132 19.2463 26.6357 17.5585 27.3626C18.1817 27.4709 18.8244 27.5238 19.4869 27.5121C18.714 27.5522 17.9596 27.5606 17.2381 27.5024C15.7662 28.1722 14.1985 29.1529 13.0235 30.5596C14.5638 30.9826 16.1972 31.1624 17.8264 30.9769C17.8462 30.9742 17.8678 30.9715 17.888 30.9686C19.3566 29.1782 21.0346 28.1081 21.554 27.8031C21.1174 28.1577 19.8891 29.2326 18.7325 30.8333C19.7858 30.6207 20.8312 30.2462 21.8376 29.6672C20.7136 30.3128 19.6039 30.8176 18.499 31.1669C17.7028 32.3315 16.9757 33.7395 16.6193 35.3288C18.1626 35.0536 19.6799 34.5277 21.0473 33.6852C21.1821 33.6028 21.3209 33.5313 21.451 33.4418C22.0094 31.5873 23.2004 29.6973 23.278 29.5704C23.0561 30.0295 22.5091 31.2767 22.1324 32.9215C22.8556 32.3385 23.5238 31.6601 24.0969 30.8448C23.454 31.76 22.7739 32.5751 22.0508 33.285C21.7618 34.6989 21.6299 36.3676 21.9352 38.0611C23.0315 37.2345 24.0211 36.2409 24.801 35.0766C24.7896 35.0141 24.7766 34.9525 24.7669 34.8916C24.7197 34.6363 24.6911 34.3683 24.6594 34.0989C24.4849 32.4557 24.7268 30.5286 24.7439 30.3819C24.7382 30.9476 24.7766 32.5138 25.2348 34.364C25.6799 33.5744 26.0323 32.7179 26.2599 31.787C26.035 32.8577 25.7387 33.858 25.3479 34.7745C25.7373 36.1772 26.3714 37.6964 27.4164 39.0321C28.1526 37.6394 28.6651 36.1101 28.8096 34.4981C27.5296 32.6807 26.9469 30.8805 26.7854 30.3048H26.7882C26.8766 30.5004 27.0346 30.8234 27.2619 31.2356C27.6186 31.8841 28.144 32.7339 28.851 33.6201C28.8537 32.9689 28.7982 32.3075 28.6691 31.6389C28.8442 32.3928 28.9828 33.137 29.0502 33.8566C30.0594 35.0737 31.4022 36.3069 33.0973 37.1205C33.1958 35.5271 33.031 33.8963 32.493 32.3458H32.4926ZM20.9127 34.2786C19.5942 35.2992 18.124 35.9816 16.4573 36.2713C16.4543 36.2799 16.4532 36.2883 16.4516 36.2983C16.293 37.6297 16.4045 39.0149 16.7623 40.4428C18.2366 40.0926 19.6673 39.5537 20.9411 38.7468C20.9771 38.7241 21.0112 38.6999 21.0471 38.6769C21.0742 38.66 21.1002 38.643 21.1275 38.6242C20.7911 36.9552 20.9513 35.3517 21.3077 33.959C21.1775 34.069 21.0458 34.1762 20.9129 34.2786H20.9127ZM22.1451 38.9836C22.1852 39.1245 22.2168 39.2671 22.2623 39.4098C22.6779 40.6583 23.3463 41.8457 24.2494 42.9702C25.2242 42.1334 26.0974 41.1856 26.7878 40.1097C26.8394 40.0313 26.8865 39.9484 26.9369 39.8691C25.8517 38.5535 25.2447 37.0667 24.9196 35.6587C24.2326 36.9657 23.3236 38.0828 22.1452 38.9839L22.1451 38.9836ZM7.39865 14.7389C7.13643 14.8104 6.87019 14.89 6.60247 14.9713C6.60796 15 6.61657 15.0288 6.62389 15.057C6.98189 16.5392 7.48307 18.1073 8.17855 19.6021C9.44553 18.9707 10.7242 18.5831 12.0138 18.4406C12.1515 18.4265 12.2886 18.4023 12.4259 18.3923C12.725 18.3707 13.0172 18.3737 13.3078 18.385C13.2849 18.3126 13.2578 18.2428 13.2364 18.1682C13.2121 18.0871 13.1793 18.013 13.156 17.9303C12.811 16.6373 12.6882 15.3048 12.7182 13.9794C11.0991 13.9579 9.32358 14.2133 7.39865 14.7389ZM31.6937 42.2862C32.3337 40.9803 32.8047 39.5951 32.9979 38.1599C33.0006 38.1285 33.0035 38.0955 33.0065 38.0642C31.3203 37.3074 30.0477 36.1317 29.1083 34.9058C29.1343 36.6244 28.8006 38.2381 28.0304 39.7449C29.0198 40.7808 30.2449 41.626 31.6937 42.2864V42.2862ZM30.4668 13.2853C29.7724 10.3494 27.7512 7.62523 24.4485 5.1383C23.2329 6.51404 22.0879 8.09286 21.2648 9.81608C22.5974 10.5931 23.7054 11.5351 24.5701 12.6556C27.5609 16.5252 26.2639 21.8701 25.9015 23.1242C25.953 23.1603 26.0044 23.1969 26.0561 23.2369C26.3009 22.9703 26.6071 22.691 26.9967 22.4002C26.9967 22.4002 27.3716 22.8093 27.6825 23.3836L27.6836 23.3853C27.7341 23.3667 27.7896 23.3495 27.8427 23.3311C28.0359 23.264 28.2421 23.1998 28.4769 23.1415C28.4895 23.1388 28.5012 23.1359 28.5139 23.1313C28.5252 23.1286 28.5355 23.1269 28.5455 23.124C28.6113 23.1071 28.6701 23.0885 28.7431 23.0742C28.7431 23.0742 28.9147 23.6215 28.9477 24.2886C29.1295 24.3001 29.3227 24.3225 29.5305 24.3553C29.6994 24.3825 29.8686 24.4084 30.0574 24.4523C30.0574 24.4523 29.9843 24.9898 29.7468 25.5867C29.8986 25.6751 30.0588 25.7796 30.2222 25.8933C30.3337 25.9719 30.4424 26.0417 30.5613 26.1342C30.5613 26.1342 30.2549 26.6073 29.7724 27.0578C29.9502 27.3012 30.1262 27.5905 30.3036 27.9301C30.3166 27.9515 30.328 27.9741 30.341 27.9956C30.341 27.9956 29.8557 28.3006 29.2242 28.5075C29.2831 28.8211 29.3318 29.1671 29.3445 29.5806C29.3445 29.5806 29.2888 29.5879 29.2029 29.5947C29.1716 29.5976 29.1383 29.599 29.0986 29.6007C29.2273 29.7017 29.3835 29.8213 29.5565 29.9482C30.1764 30.4043 31.0685 30.9917 32.1608 31.5263C31.7843 30.6809 31.2888 29.8658 30.6488 29.103C31.3562 29.9454 31.9632 30.7977 32.4613 31.6655C34.0418 32.3955 35.9817 32.9755 38.0617 32.8575C42.786 32.591 47.5531 29.0803 52.2485 22.4285C50.7082 21.2495 49.2496 20.252 47.8722 19.4265C46.2187 23.6214 43.9153 26.5232 40.9805 28.0895C39.9354 28.6483 38.8616 28.9505 37.8169 29.0971C34.5587 29.5562 30.805 28.0612 30.6561 28.0054C31.7039 28.2977 36.5443 29.4433 40.5655 27.2928C44.6968 25.0808 47.5174 19.9656 48.9631 12.0749C46.7827 11.5947 44.8085 11.2912 43.022 11.14C43.294 15.6109 42.4364 19.1902 40.4492 21.8341C37.5174 25.7376 31.2026 26.0913 31.0509 26.1043C31.3674 26.0514 32.0119 25.9289 32.849 25.6837C34.8233 25.1036 37.814 23.8494 39.7369 21.2852C42.5783 17.4955 42.9305 11.5648 40.8005 3.65282C38.6485 4.12483 36.7534 4.67049 35.0854 5.27212C37.4331 9.39549 38.2723 13.1639 37.5679 16.5248C36.5417 21.4135 31.8127 23.8934 30.8607 24.3468C31.3844 23.9935 32.9651 22.8345 34.3826 21.0358C35.3846 19.7643 36.3009 18.1766 36.686 16.3294C37.6466 11.7214 35.4805 6.23127 30.2496 0C29.2949 0.662707 27.1432 2.2532 25.0546 4.4725C28.5003 7.08376 30.6117 9.96558 31.3491 13.091C32.3685 17.4242 29.9191 21.2522 28.8984 22.6123C28.8997 22.6095 28.9011 22.6037 28.9011 22.6037C28.9011 22.6037 28.788 22.7577 28.6464 22.9087C28.9398 22.407 29.564 21.2338 30.0579 19.6763C30.6292 17.8787 31.0143 15.5928 30.4672 13.285L30.4668 13.2853ZM9.98225 34.8546C10.2512 33.4048 10.7411 32.112 11.4426 30.9892C10.148 30.4858 8.93721 29.7662 7.81635 28.9278C7.06045 30.1509 6.41605 31.5862 5.88245 33.2311C7.1476 33.8566 8.53636 34.4325 9.98225 34.8546ZM15.683 35.4713C15.9193 34.3014 16.3644 33.2566 16.9171 32.3447C17.0842 32.0407 17.2732 31.7414 17.4811 31.4435C15.8046 31.8225 14.1352 31.8112 12.4518 31.3268C12.44 31.3438 12.4274 31.3607 12.4157 31.3795C11.7116 32.467 11.2476 33.7198 11.0128 35.1268C12.5521 35.4832 14.1339 35.6398 15.6829 35.4713H15.683ZM23.6968 4.59501C22.0279 3.42219 20.0694 2.3048 17.8131 1.2441C17.4166 1.89423 15.9434 4.41963 14.8526 7.65495C17.0055 8.01702 18.8783 8.59149 20.4628 9.37981C21.3091 7.60828 22.4716 5.99609 23.6966 4.59483L23.6968 4.59501ZM8.31992 28.158C9.44518 29.0205 10.668 29.7447 11.9762 30.2249C12.582 29.4648 13.2979 28.8481 14.0648 28.3478C14.686 27.9414 15.339 27.612 15.9905 27.3458C15.8431 27.3199 15.6959 27.2944 15.551 27.2631C13.972 26.9265 12.5431 26.2853 11.2793 25.2645C10.1687 25.9858 9.17929 26.9466 8.31992 28.1578V28.158ZM19.1429 14.8858C19.1275 14.2432 19.1733 13.5918 19.2934 12.9276C19.4582 12.0137 19.7285 11.1273 20.0722 10.2735C18.5335 9.49084 16.6922 8.92512 14.5591 8.57289C14.1353 9.98837 13.8074 11.5107 13.6799 13.0529C15.308 13.1752 16.7896 13.5675 18.1093 14.2499C18.4774 14.4399 18.8197 14.6547 19.143 14.8858H19.1429ZM16.3772 22.9858C16.1738 22.8092 15.992 22.6194 15.8046 22.4314C14.9024 21.5321 14.1839 20.5189 13.6759 19.3685C13.289 19.3454 12.9 19.3372 12.5034 19.3669C11.1976 19.4584 9.90059 19.8316 8.61218 20.4688C9.30821 21.7785 10.1685 23 11.2379 24.0221C11.2622 24.0463 11.2864 24.0719 11.312 24.0959C11.3278 24.0863 11.3424 24.0762 11.3578 24.0677C12.9984 23.161 14.7592 22.9185 16.3772 22.9856V22.9858ZM4.07673 23.8693C4.08698 23.8812 4.09541 23.8935 4.10566 23.9036C5.09339 25.1564 6.25271 26.4348 7.56255 27.5495C8.31296 26.489 9.16299 25.6126 10.0993 24.9012C10.2397 24.7945 10.3772 24.6817 10.5217 24.5836C10.5146 24.575 10.5074 24.569 10.5001 24.5635C9.40635 23.4888 8.52007 22.2332 7.80591 20.8991C6.75812 21.5107 5.71729 22.3085 4.68652 23.2779C4.48308 23.4691 4.27871 23.6642 4.07637 23.8693H4.07673Z" fill="#8FAA1A"/>
</svg>
