<svg width="202" height="21" viewBox="0 0 202 21" fill="none" xmlns="http://www.w3.org/2000/svg">
<path d="M0.111507 20.2238V0.608006H4.01885L8.67826 14.4933C9.1095 15.7855 9.42135 16.7534 9.61838 17.3974C9.84325 16.6851 10.1963 15.6348 10.6731 14.2514L15.4153 0.608006H18.9055V20.2238H16.4014V3.81343L10.6504 20.2238H8.30232L2.61525 3.51207V20.2238H0.111328H0.111507ZM26.7801 20.2238V0.608006H41.0065V2.90934H29.3943V8.93642H40.2634V11.2378H29.3943V17.9224H41.4743V20.2236H26.7801V20.2238ZM48.7159 20.2238V0.608006H56.1548C57.4617 0.608006 58.4615 0.671998 59.154 0.795059C60.1216 0.954948 60.9334 1.26087 61.5891 1.70845C62.2451 2.1604 62.7724 2.79065 63.1715 3.59885C63.5705 4.40704 63.7677 5.29746 63.7677 6.26991C63.7677 7.93188 63.2357 9.34298 62.1673 10.4936C61.1032 11.6487 59.1724 12.2241 56.3839 12.2241H51.33V20.2238H48.7159ZM51.33 9.92273H56.4207C58.1085 9.92273 59.3009 9.61225 60.0118 8.98674C60.7179 8.36122 61.0711 7.48448 61.0711 6.34758C61.0711 5.53009 60.8647 4.82709 60.4474 4.2426C60.0301 3.6581 59.4798 3.26996 58.8008 3.0829C58.3608 2.96878 57.5489 2.90952 56.3701 2.90952H51.33V9.92291V9.92273ZM70.7618 0.608006H73.1283V16.1418L83.6168 0.608006H86.1989V20.2238H83.8325V4.73119L73.3714 20.2238H70.7618V0.608006ZM108.158 13.3427L110.772 14.0003C110.226 16.1325 109.245 17.7536 107.827 18.8723C106.41 19.9908 104.677 20.5527 102.627 20.5527C100.508 20.5527 98.7833 20.1233 97.4533 19.2604C96.1233 18.4019 95.1144 17.1554 94.4218 15.5254C93.7293 13.8908 93.3808 12.142 93.3808 10.27C93.3808 8.22886 93.7706 6.44803 94.5549 4.92754C95.339 3.40724 96.4537 2.25192 97.8983 1.46196C99.3427 0.671999 100.934 0.279297 102.668 0.279297C104.64 0.279297 106.295 0.777193 107.635 1.77718C108.978 2.77716 109.914 4.17878 110.441 5.98696L107.882 6.58969C107.428 5.1651 106.763 4.12391 105.896 3.47542C105.03 2.82256 103.938 2.49841 102.622 2.49841C101.113 2.49841 99.8474 2.8592 98.8338 3.58062C97.8203 4.30203 97.1047 5.27467 96.6967 6.48924C96.2838 7.70836 96.0776 8.96395 96.0776 10.2562C96.0776 11.9229 96.3206 13.3794 96.8067 14.6215C97.2929 15.8681 98.0495 16.7948 99.0768 17.4112C100.104 18.0276 101.214 18.3335 102.411 18.3335C103.869 18.3335 105.098 17.9135 106.107 17.078C107.116 16.2379 107.8 14.9958 108.157 13.3429L108.158 13.3427ZM121.728 20.2238V2.90934H115.234V0.608006H130.836V2.90934H124.342V20.2238H121.728H121.728ZM137.22 20.2238V0.608006H151.446V2.90934H139.834V8.93642H150.703V11.2378H139.834V17.9224H151.914V20.2236H137.22V20.2238ZM159.101 20.2238V0.608006H163.008L167.668 14.4933C168.099 15.7855 168.411 16.7534 168.608 17.3974C168.833 16.6851 169.186 15.6348 169.662 14.2514L174.405 0.608006H177.895V20.2238H175.391V3.81343L169.64 20.2238H167.292L161.605 3.51207V20.2238H159.101H159.101ZM183.554 20.2238L191.112 0.608006H193.979L202 20.2238H199.033L196.754 14.2787H188.457L186.32 20.2238H183.554ZM189.223 12.1692H195.937L193.882 6.73098C193.263 5.07795 192.795 3.71279 192.47 2.63514C192.199 3.9137 191.837 5.16929 191.383 6.41139L189.223 12.1692Z" fill="#8FAA1A"/>
</svg>
