<svg width="230" height="45" viewBox="0 0 230 45" fill="none" xmlns="http://www.w3.org/2000/svg">
<path d="M56.088 31.2041V14.3066H59.4539L63.4676 26.2677C63.8391 27.3809 64.1078 28.2147 64.2775 28.7693C64.4712 28.1558 64.7753 27.251 65.1861 26.0593L69.2711 14.3066H72.2776V31.2041H70.1205V17.0678L65.1665 31.2041H63.1438L58.2448 16.8082V31.2041H56.0879H56.088ZM79.061 31.2041V14.3066H91.3159V16.289H81.3129V21.4809H90.6758V23.4633H81.3129V29.2216H91.7189V31.2039H79.061V31.2041ZM97.957 31.2041V14.3066H104.365C105.491 14.3066 106.352 14.3617 106.949 14.4677C107.782 14.6055 108.481 14.869 109.046 15.2545C109.611 15.6439 110.066 16.1868 110.409 16.883C110.753 17.5792 110.923 18.3462 110.923 19.1839C110.923 20.6155 110.465 21.8311 109.544 22.8222C108.628 23.8173 106.964 24.3129 104.562 24.3129H100.209V31.2041H97.957ZM100.209 22.3305H104.594C106.048 22.3305 107.075 22.0631 107.688 21.5242C108.296 20.9854 108.6 20.2302 108.6 19.2508C108.6 18.5466 108.422 17.941 108.063 17.4375C107.703 16.934 107.229 16.5997 106.644 16.4385C106.265 16.3402 105.566 16.2892 104.551 16.2892H100.209V22.3307V22.3305ZM116.948 14.3066H118.986V27.6878L128.021 14.3066H130.246V31.2041H128.207V17.8584L119.196 31.2041H116.948V14.3066ZM149.161 25.2766L151.413 25.8431C150.943 27.6797 150.098 29.0762 148.877 30.0399C147.656 31.0034 146.163 31.4874 144.397 31.4874C142.572 31.4874 141.086 31.1175 139.941 30.3742C138.795 29.6347 137.926 28.5609 137.329 27.1568C136.733 25.7487 136.432 24.2423 136.432 22.6297C136.432 20.8714 136.768 19.3373 137.444 18.0275C138.119 16.7179 139.079 15.7227 140.324 15.0422C141.568 14.3617 142.939 14.0234 144.432 14.0234C146.131 14.0234 147.557 14.4523 148.711 15.3137C149.868 16.1752 150.675 17.3825 151.129 18.9402L148.924 19.4594C148.533 18.2322 147.96 17.3353 147.214 16.7767C146.467 16.2143 145.527 15.935 144.393 15.935C143.093 15.935 142.003 16.2458 141.13 16.8673C140.257 17.4887 139.64 18.3266 139.289 19.3728C138.933 20.423 138.755 21.5046 138.755 22.6178C138.755 24.0535 138.965 25.3082 139.384 26.3781C139.802 27.452 140.454 28.2503 141.339 28.7813C142.224 29.3123 143.18 29.5758 144.211 29.5758C145.467 29.5758 146.526 29.214 147.395 28.4942C148.264 27.7705 148.853 26.7005 149.161 25.2767L149.161 25.2766ZM160.851 31.2041V16.289H155.257V14.3066H168.697V16.289H163.103V31.2041H160.851H160.851ZM174.197 31.2041V14.3066H186.451V16.289H176.448V21.4809H185.811V23.4633H176.448V29.2216H186.854V31.2039H174.197V31.2041ZM193.045 31.2041V14.3066H196.411L200.425 26.2677C200.796 27.3809 201.065 28.2147 201.235 28.7693C201.428 28.1558 201.732 27.251 202.143 26.0593L206.228 14.3066H209.235V31.2041H207.078V17.0678L202.124 31.2041H200.101L195.202 16.8082V31.2041H193.045H193.045ZM214.11 31.2041L220.621 14.3066H223.09L230 31.2041H227.443L225.48 26.0829H218.333L216.492 31.2041H214.11ZM218.993 24.2657H224.777L223.007 19.5811C222.474 18.1571 222.07 16.9811 221.79 16.0528C221.557 17.1542 221.245 18.2358 220.854 19.3058L218.993 24.2657Z" fill="white"/>
<path d="M8.47464 30.8014C7.19063 30.4393 5.95632 29.9457 4.83036 29.408C4.38537 30.9565 4.0448 32.7022 3.81056 34.6406C4.64296 34.8261 6.44609 35.1749 8.61992 35.288C8.36233 33.6585 8.31312 32.1557 8.47449 30.8014H8.47464ZM13.6812 34.9981C13.3679 33.7444 13.2679 32.5268 13.388 31.3431C12.056 31.4607 10.7032 31.3271 9.38466 31.0312C9.26509 32.3203 9.36131 33.7532 9.66118 35.3197C10.951 35.3346 12.3259 35.2511 13.6814 34.9981H13.6812ZM6.34845 17.2603C5.73089 15.9539 5.28686 14.5911 4.96586 13.2996C2.88809 14.2608 1.24159 15.34 0.482065 15.8691C0.855754 16.5875 1.72901 18.1689 3.01255 19.9034C4.11011 18.7998 5.22249 17.9158 6.34845 17.2603ZM5.5088 12.096C7.50517 11.4859 9.33765 11.1886 10.9977 11.2085C11.1037 9.84662 11.3823 8.51218 11.7462 7.26977C9.32929 6.97358 7.09693 6.96384 4.91553 7.08446C4.91316 7.21701 4.92042 7.40845 4.93667 7.63805C4.97973 8.51108 5.11035 10.1711 5.5088 12.0962V12.096ZM9.82254 36.1142C10.1995 37.757 10.8026 39.5459 11.6154 41.4683C12.6873 41.1933 14.2607 40.7233 15.949 39.9938C15.0119 38.5438 14.325 37.1308 13.8932 35.7582C12.518 36.0233 11.1283 36.12 9.82254 36.1142ZM6.0724 24.3997C4.8996 23.4312 3.85993 22.3248 2.972 21.2381C1.49965 22.9828 0.465021 24.6514 0 25.4517C0.63617 25.949 2.23583 27.1364 4.32827 28.2488C4.80938 26.7816 5.39033 25.4987 6.0724 24.3995V24.3997ZM29.1764 33.0829C28.9941 34.357 28.5794 35.5814 28.0271 36.7281C30.7699 37.7804 34.3508 38.1339 38.7485 37.7716C38.6669 35.8758 38.4858 34.1865 38.2219 32.6827C34.7542 33.8306 31.7328 33.9608 29.1764 33.0829ZM32.8193 29.0791C31.1285 29.1724 29.6252 28.707 28.3797 28.0708C29.0173 29.4189 29.3329 30.8151 29.2564 32.2907C33.014 33.6696 37.9432 32.637 43.9241 29.2116C43.0523 27.5476 42.1793 26.1074 41.3097 24.8699C38.5029 27.5097 35.6616 28.9217 32.8193 29.0791ZM25.3744 40.7451C26.8838 41.6452 28.6472 42.4742 30.6623 43.2292C31.3761 41.5227 31.9177 39.9534 32.3134 38.5108C30.5737 38.3156 29.0296 37.9475 27.6705 37.4181C27.0094 38.6336 26.207 39.7524 25.3744 40.7451ZM20.799 38.1009C19.6373 39.0057 18.3634 39.7422 17.113 40.3366C18.0293 41.6417 19.1528 42.9813 20.4871 44.3527C21.2911 43.7242 22.7341 42.5147 24.1817 40.9088C22.8401 40.0345 21.7093 39.0991 20.799 38.1009ZM23.7514 34.9331C23.744 34.9453 23.7378 34.9579 23.7304 34.9686C23.0894 35.9682 22.2863 36.8411 21.3969 37.6098C22.2775 38.572 23.3815 39.4744 24.6934 40.3206C25.5077 39.3595 26.2942 38.2788 26.9415 37.111C25.6962 36.5414 24.6319 35.8146 23.7514 34.9329V34.9331ZM18.6322 34.6975C18.5644 34.5255 18.4942 34.3536 18.4362 34.1792C18.4226 34.14 18.4166 34.1006 18.4043 34.0613C18.3942 34.0676 18.3844 34.0724 18.3732 34.0786C17.2239 34.7916 15.9538 35.2754 14.6527 35.5911C15.0745 36.9098 15.7454 38.2713 16.6617 39.6734C17.8935 39.0964 19.1514 38.3792 20.2898 37.5029C19.5717 36.6125 19.0196 35.6781 18.6321 34.6973L18.6322 34.6975ZM27.9899 27.8634C26.5371 27.0469 25.49 26.0341 24.9969 25.5037C24.8081 25.5111 24.5458 25.5095 24.257 25.478C24.1882 25.7442 24.0994 26.0278 23.9612 26.3508C23.9612 26.3508 23.5886 26.2329 23.1632 25.9934C23.1129 25.9653 23.0622 25.9345 23.0114 25.904C23.0065 25.9088 23.0016 25.9149 22.9953 25.921C22.9953 25.9224 22.9944 25.9224 22.9944 25.9224C22.8242 26.126 22.6182 26.3397 22.3679 26.5655C22.3679 26.5655 22.0054 26.2329 21.6923 25.753C21.5762 25.8082 21.4493 25.8609 21.3162 25.9122C21.1643 25.97 21.0039 26.0278 20.8289 26.0817C20.8289 26.0817 20.6352 25.614 20.5576 25.0346C20.3824 25.0384 20.1937 25.0282 19.9902 25.0112C19.8707 25.0001 19.7585 24.9943 19.6277 24.9767C19.6277 24.9767 19.6525 24.4978 19.814 23.9601C19.5809 23.8522 19.334 23.7231 19.0617 23.5488C19.0529 23.543 19.0457 23.5391 19.037 23.5331C19.037 23.5331 19.254 23.1243 19.618 22.7103C19.4834 22.5506 19.3452 22.3664 19.2048 22.1567C19.1652 22.0978 19.1256 22.0386 19.0862 21.975C19.0862 21.975 19.4687 21.6851 19.9891 21.4616C19.914 21.1978 19.8497 20.9069 19.8068 20.5569C19.8068 20.5569 20.4108 20.429 21.0731 20.4882C21.167 20.1837 21.3036 19.8461 21.5083 19.4654C21.5083 19.4654 21.8885 19.6237 22.3037 19.9145C22.4545 18.812 22.8499 14.4595 20.497 11.4209C19.8336 10.5664 18.9949 9.83595 17.9815 9.22785C17.7176 9.89076 17.509 10.5736 17.3834 11.2747C17.26 11.9672 17.1908 12.6755 17.1897 13.389C19.6129 15.5952 20.4428 19.8644 20.4775 20.0289C20.259 19.3031 19.3119 16.5593 17.2465 14.5237C17.4129 16.1392 17.9615 17.7353 19.0543 19.1583C17.7468 17.4567 16.8789 15.7339 16.5928 13.934C16.1723 13.594 15.7159 13.2858 15.2165 13.028C14.1817 12.4951 13.0192 12.1843 11.7389 12.0813C11.7118 13.1508 11.8106 14.2189 12.0853 15.25C12.1448 15.4726 12.2186 15.6934 12.2902 15.9131C15.7653 16.4298 18.9373 19.9882 18.8643 19.9007C18.2428 19.3484 15.7098 17.2734 12.6098 16.7761C12.8439 17.3457 13.1266 17.8969 13.4582 18.4249C13.6456 18.7232 13.8502 19.0131 14.0721 19.2928C14.2141 19.471 14.356 19.6504 14.5125 19.8198C14.6199 19.8272 14.7223 19.8407 14.8281 19.8516C16.7051 20.053 18.7794 20.9273 18.9013 20.9763C18.4354 20.8364 17.1515 20.4998 15.5545 20.4125C15.4028 20.4042 15.2487 20.4004 15.0922 20.3979L16.9455 21.6909C16.1822 21.2942 15.4854 20.8623 14.854 20.3932C13.4397 20.3894 11.8648 20.6216 10.4292 21.3534C11.4307 22.1625 12.569 22.829 13.8219 23.243C13.9625 23.2897 14.1058 23.3352 14.2499 23.3756C15.9875 22.7505 18.238 22.5895 18.3737 22.5774C17.8804 22.6668 16.5792 22.9446 15.1253 23.5708C15.6621 23.6641 16.2158 23.7096 16.7865 23.6996C16.1207 23.7341 15.4708 23.7413 14.8493 23.6912C13.5814 24.2682 12.2309 25.113 11.2187 26.3248C12.5456 26.6891 13.9527 26.844 15.3561 26.6843C15.3731 26.6819 15.3918 26.6796 15.4091 26.677C16.6742 25.1348 18.1197 24.2129 18.5671 23.9502C18.191 24.2557 17.1329 25.1816 16.1366 26.5605C17.0439 26.3774 17.9445 26.0548 18.8114 25.556C17.8432 26.1121 16.8873 26.547 15.9355 26.8479C15.2496 27.8511 14.6232 29.064 14.3163 30.433C15.6457 30.196 16.9528 29.7429 18.1306 29.0172C18.2467 28.9462 18.3663 28.8847 18.4784 28.8076C18.9594 27.2101 19.9853 25.5819 20.0522 25.4726C19.861 25.8681 19.3899 26.9424 19.0654 28.3593C19.6883 27.8571 20.2639 27.2727 20.7576 26.5704C20.2038 27.3588 19.618 28.0609 18.995 28.6725C18.7461 29.8904 18.6325 31.3279 18.8955 32.7867C19.8399 32.0746 20.6923 31.2187 21.3641 30.2158C21.3544 30.1619 21.3432 30.1089 21.3348 30.0564C21.2941 29.8365 21.2695 29.6057 21.2422 29.3736C21.0919 27.9581 21.3003 26.2981 21.3149 26.1717C21.31 26.659 21.3432 28.0082 21.7378 29.6019C22.1213 28.9217 22.4248 28.1839 22.6209 27.382C22.4272 28.3044 22.1719 29.1661 21.8353 29.9556C22.1707 31.1639 22.7169 32.4726 23.6172 33.6231C24.2513 32.4234 24.6928 31.1061 24.8173 29.7175C23.7146 28.1519 23.2127 26.6012 23.0736 26.1052H23.076C23.1521 26.2737 23.2883 26.552 23.484 26.9071C23.7913 27.4657 24.2439 28.1977 24.8529 28.9611C24.8553 28.4002 24.8075 27.8304 24.6963 27.2545C24.8471 27.9039 24.9665 28.545 25.0245 29.1648C25.8938 30.2133 27.0506 31.2756 28.5108 31.9765C28.5956 30.6039 28.4537 29.1991 27.9902 27.8634H27.9899ZM18.0147 29.5284C16.8789 30.4076 15.6124 30.9954 14.1767 31.2449C14.1741 31.2523 14.1732 31.2596 14.1718 31.2682C14.0352 32.4151 14.1312 33.6084 14.4395 34.8384C15.7094 34.5367 16.9419 34.0724 18.0391 33.3774C18.0702 33.3579 18.0995 33.337 18.1304 33.3172C18.1538 33.3026 18.1762 33.288 18.1997 33.2718C17.9099 31.834 18.048 30.4528 18.3549 29.2531C18.2428 29.3478 18.1293 29.4401 18.0148 29.5284H18.0147ZM19.0763 33.5814C19.1108 33.7028 19.1381 33.8256 19.1772 33.9485C19.5353 35.024 20.1111 36.0469 20.889 37.0155C21.7287 36.2947 22.4809 35.4782 23.0756 34.5514C23.1201 34.4839 23.1607 34.4125 23.204 34.3441C22.2693 33.2109 21.7464 31.9302 21.4664 30.7173C20.8745 31.8431 20.0915 32.8054 19.0764 33.5817L19.0763 33.5814ZM6.37337 12.6964C6.14749 12.758 5.91814 12.8266 5.68752 12.8967C5.69225 12.9213 5.69967 12.9461 5.70598 12.9705C6.01436 14.2473 6.44609 15.5981 7.04519 16.8857C8.1366 16.3418 9.23811 16.0079 10.3489 15.8851C10.4675 15.873 10.5857 15.8522 10.704 15.8435C10.9616 15.825 11.2133 15.8275 11.4637 15.8372C11.444 15.7749 11.4206 15.7147 11.4022 15.6505C11.3812 15.5806 11.3529 15.5169 11.3329 15.4456C11.0357 14.3318 10.9299 13.1839 10.9558 12.0422C9.561 12.0236 8.03155 12.2437 6.37337 12.6964ZM27.3017 36.4263C27.853 35.3014 28.2587 34.1081 28.4251 32.8718C28.4275 32.8448 28.43 32.8164 28.4325 32.7894C26.98 32.1375 25.8837 31.1246 25.0745 30.0687C25.0969 31.5492 24.8095 32.9392 24.1461 34.2372C24.9983 35.1295 26.0536 35.8576 27.3017 36.4264V36.4263ZM26.2448 11.4443C25.6467 8.91517 23.9055 6.56855 21.0605 4.42625C20.0134 5.61134 19.0271 6.97138 18.318 8.4558C19.4659 9.12514 20.4204 9.93661 21.1652 10.9018C23.7416 14.2352 22.6243 18.8394 22.3122 19.9197C22.3565 19.9508 22.4008 19.9824 22.4453 20.0168C22.6562 19.7872 22.9199 19.5466 23.2556 19.2961C23.2556 19.2961 23.5785 19.6485 23.8464 20.1432L23.8473 20.1446C23.8908 20.1286 23.9386 20.1138 23.9844 20.098C24.1508 20.0402 24.3284 19.9849 24.5306 19.9346C24.5415 19.9323 24.5516 19.9298 24.5625 19.9258C24.5723 19.9235 24.5811 19.9221 24.5898 19.9196C24.6464 19.9049 24.6971 19.8889 24.76 19.8767C24.76 19.8767 24.9078 20.3481 24.9362 20.9228C25.0928 20.9327 25.2592 20.952 25.4383 20.9803C25.5837 21.0037 25.7295 21.026 25.8921 21.0638C25.8921 21.0638 25.8292 21.5268 25.6246 22.041C25.7553 22.1171 25.8934 22.2071 26.0341 22.3051C26.1301 22.3728 26.2238 22.433 26.3262 22.5126C26.3262 22.5126 26.0623 22.9201 25.6467 23.3082C25.7998 23.5179 25.9514 23.7671 26.1043 24.0597C26.1155 24.078 26.1252 24.0975 26.1364 24.116C26.1364 24.116 25.7184 24.3788 25.1744 24.557C25.2252 24.8272 25.2671 25.1252 25.278 25.4814C25.278 25.4814 25.2301 25.4877 25.1561 25.4935C25.1291 25.496 25.1004 25.4973 25.0662 25.4987C25.1771 25.5857 25.3116 25.6887 25.4607 25.798C25.9946 26.191 26.7631 26.697 27.7041 27.1574C27.3798 26.4292 26.9529 25.7271 26.4016 25.07C27.011 25.7957 27.5339 26.5299 27.9629 27.2774C29.3244 27.9063 30.9955 28.4058 32.7873 28.3042C36.8568 28.0746 40.9633 25.0505 45.0081 19.3204C43.6812 18.3048 42.4248 17.4456 41.2383 16.7345C39.8139 20.348 37.8296 22.8477 35.3015 24.1969C34.4013 24.6783 33.4763 24.9387 32.5764 25.0649C29.7697 25.4604 26.5362 24.1726 26.4079 24.1245C27.3105 24.3763 31.4801 25.3632 34.9441 23.5106C38.5029 21.6052 40.9326 17.1988 42.1779 10.4016C40.2997 9.98797 38.5991 9.72648 37.0602 9.59629C37.2944 13.4476 36.5557 16.5309 34.8439 18.8084C32.3183 22.171 26.8786 22.4757 26.748 22.4868C27.0206 22.4413 27.5758 22.3357 28.2969 22.1245C29.9976 21.6248 32.5739 20.5445 34.2303 18.3356C36.678 15.071 36.9813 9.96221 35.1465 3.14662C33.2927 3.55322 31.6602 4.02327 30.2234 4.54153C32.2458 8.09349 32.9687 11.3397 32.3619 14.2349C31.4779 18.4461 27.4042 20.5823 26.5841 20.9729C27.0352 20.6685 28.3969 19.6702 29.6179 18.1207C30.4811 17.0255 31.2704 15.6577 31.6022 14.0665C32.4297 10.0971 30.5638 5.36776 26.0577 0C25.2353 0.570871 23.3818 1.94096 21.5826 3.85271C24.5508 6.10212 26.3696 8.58458 27.0048 11.2769C27.883 15.0096 25.773 18.3071 24.8938 19.4787C24.8949 19.4764 24.8961 19.4713 24.8961 19.4713C24.8961 19.4713 24.7986 19.604 24.6767 19.7341C24.9294 19.3019 25.4671 18.2913 25.8926 16.9496C26.3847 15.4011 26.7165 13.432 26.2451 11.444L26.2448 11.4443ZM8.59894 30.0245C8.83066 28.7757 9.25262 27.662 9.85692 26.6948C8.74169 26.2612 7.69872 25.6413 6.73319 24.919C6.08203 25.9727 5.52694 27.2091 5.06728 28.626C6.15711 29.1648 7.35342 29.661 8.59894 30.0245ZM13.5097 30.5558C13.7132 29.548 14.0967 28.648 14.5728 27.8624C14.7168 27.6006 14.8796 27.3428 15.0586 27.0861C13.6145 27.4127 12.1764 27.4029 10.7262 26.9856C10.7161 27.0002 10.7053 27.0148 10.6952 27.031C10.0887 27.9678 9.68893 29.0471 9.48671 30.259C10.8127 30.566 12.1753 30.7009 13.5096 30.5558H13.5097ZM20.413 3.95825C18.9753 2.94796 17.2883 1.98541 15.3446 1.0717C15.0031 1.63173 13.7341 3.80717 12.7944 6.59415C14.649 6.90605 16.2622 7.40091 17.6271 8.07999C18.3562 6.55395 19.3575 5.16517 20.4128 3.95809L20.413 3.95825ZM7.16698 24.256C8.1363 24.999 9.18969 25.6228 10.3166 26.0364C10.8384 25.3817 11.4552 24.8504 12.1158 24.4195C12.6508 24.0694 13.2133 23.7856 13.7746 23.5563C13.6476 23.534 13.5208 23.512 13.396 23.485C12.0358 23.1951 10.8049 22.6428 9.71622 21.7635C8.75952 22.3847 7.90726 23.2124 7.16698 24.2558V24.256ZM16.4901 12.823C16.4769 12.2694 16.5163 11.7083 16.6198 11.1361C16.7617 10.3489 16.9946 9.5853 17.2906 8.84984C15.9651 8.17563 14.3791 7.68831 12.5415 7.38489C12.1765 8.60421 11.894 9.91557 11.7842 11.244C13.1867 11.3494 14.463 11.6874 15.5998 12.2752C15.9169 12.4389 16.2117 12.6239 16.4903 12.823H16.4901ZM14.1077 19.8005C13.9325 19.6483 13.7758 19.4848 13.6145 19.3229C12.8373 18.5482 12.2183 17.6755 11.7807 16.6845C11.4474 16.6646 11.1124 16.6575 10.7707 16.6831C9.64588 16.7619 8.5286 17.0834 7.41873 17.6323C8.0183 18.7605 8.75937 19.8128 9.68057 20.6932C9.70155 20.7141 9.72237 20.7361 9.74446 20.7568C9.75802 20.7485 9.77064 20.7398 9.78389 20.7324C11.1971 19.9514 12.7139 19.7426 14.1077 19.8004V19.8005ZM3.51179 20.5616C3.52062 20.5718 3.52788 20.5825 3.53671 20.5911C4.38757 21.6703 5.38623 22.7716 6.51455 23.7318C7.16098 22.8182 7.89322 22.0633 8.69975 21.4505C8.82073 21.3586 8.93919 21.2614 9.06364 21.1769C9.05749 21.1695 9.05134 21.1643 9.04504 21.1596C8.10285 20.2338 7.33938 19.1522 6.72419 18.0029C5.8216 18.5298 4.925 19.2171 4.03708 20.0521C3.86183 20.2168 3.68578 20.3849 3.51148 20.5616H3.51179Z" fill="white"/>
</svg>
