<svg width="147" height="13" viewBox="0 0 147 13" fill="none" xmlns="http://www.w3.org/2000/svg">
<path d="M1.38533 10.0328C1.33302 10.0328 1.26765 10.0328 1.20227 10.0197C1.12382 10.0066 1.04537 10.0066 0.966913 9.99354C0.888461 9.98047 0.823084 9.98047 0.757707 9.96739C0.69233 9.94124 0.653104 9.94124 0.626953 9.92817V9.1698C0.69233 9.20902 0.810009 9.2221 0.953838 9.23517C1.09767 9.24825 1.20227 9.26132 1.26765 9.26132C1.35917 9.26132 1.47685 9.24825 1.60761 9.2221C1.73836 9.20902 1.88219 9.13057 2.02602 8.98674C2.16985 8.85599 2.31368 8.64678 2.45751 8.34605C2.60134 8.05839 2.71901 7.63998 2.83669 7.09081C2.9413 6.55472 3.03282 5.86172 3.0982 5.0249C3.16358 4.18807 3.2028 3.15512 3.2028 1.93911V0.618494H8.9429V9.95432H8.05377V1.37687H4.06578V1.88681C4.06578 3.24665 4.02655 4.38421 3.93503 5.31256C3.8435 6.24091 3.72582 7.01236 3.58199 7.61383C3.43816 8.22837 3.26818 8.68601 3.08513 9.01289C2.88899 9.33978 2.70594 9.58821 2.50981 9.73204C2.31368 9.87587 2.11755 9.96739 1.92142 9.99354C1.72529 10.0197 1.54223 10.0328 1.38533 10.0328Z" fill="#D7C68A" fill-opacity="0.7"/>
<path d="M18.4762 9.95432H17.5217L16.3841 7.05158H12.1346L11.0101 9.95432H10.0687L13.8213 0.618494H14.8151L18.4762 9.95432ZM12.4092 6.29321H16.0834L14.279 1.50762L12.4092 6.29321Z" fill="#D7C68A" fill-opacity="0.7"/>
<path d="M22.8811 10.1504C22.3057 10.1504 21.7827 10.0851 21.3251 9.92817C20.8674 9.78434 20.4752 9.57513 20.1614 9.30055C19.8345 9.02597 19.5991 8.69908 19.4292 8.29375C19.2592 7.90148 19.1676 7.45692 19.1676 6.96006V6.8816H20.0175C20.0175 7.74458 20.2791 8.38527 20.8151 8.80369C21.3512 9.2221 22.0573 9.4313 22.9464 9.4313C23.3387 9.4313 23.6917 9.36593 24.0055 9.24825C24.3193 9.13057 24.5809 8.97367 24.8031 8.77753C25.0123 8.5814 25.1823 8.34605 25.3 8.07146C25.4177 7.80996 25.47 7.53537 25.47 7.23464C25.47 6.96006 25.4177 6.71162 25.3131 6.48934C25.1954 6.26706 25.0516 6.08401 24.8554 5.9271C24.6593 5.7702 24.437 5.65252 24.1886 5.56099C23.9271 5.46946 23.6525 5.43024 23.3518 5.43024H21.8612V4.67186H23.3518C23.6002 4.67186 23.8356 4.63264 24.0578 4.56726C24.2801 4.50188 24.4893 4.39728 24.6593 4.25345C24.8293 4.1227 24.9731 3.95272 25.0777 3.74351C25.1692 3.54738 25.2215 3.31202 25.2215 3.03744C25.2215 2.71056 25.1692 2.43597 25.0516 2.20062C24.9339 1.96526 24.7639 1.76913 24.5678 1.61222C24.3716 1.46839 24.1232 1.35072 23.8486 1.27226C23.574 1.20689 23.2733 1.16766 22.9595 1.16766C22.5934 1.16766 22.2534 1.20689 21.9396 1.29841C21.6258 1.38994 21.3512 1.5207 21.129 1.69068C20.8936 1.87373 20.7105 2.09601 20.5798 2.35752C20.436 2.6321 20.3575 2.93284 20.3314 3.28587H19.4684C19.4945 2.80208 19.5991 2.38367 19.7822 2.03064C19.9522 1.6776 20.2006 1.37687 20.5013 1.12843C20.8021 0.893077 21.1682 0.710022 21.5866 0.592343C21.9919 0.474665 22.4496 0.422363 22.9334 0.422363C23.3648 0.422363 23.7833 0.474665 24.1755 0.566192C24.5547 0.670796 24.8947 0.8277 25.1823 1.03691C25.47 1.24611 25.6923 1.50762 25.8622 1.82143C26.0322 2.14831 26.1107 2.5275 26.1107 2.95899C26.1107 3.20742 26.0714 3.4297 25.993 3.63891C25.9145 3.86119 25.8099 4.04425 25.6792 4.21423C25.5484 4.38421 25.4046 4.54111 25.2346 4.65879C25.0646 4.77647 24.9077 4.86799 24.7378 4.93337V4.9726C25.2346 5.10335 25.6269 5.35178 25.9276 5.71789C26.2153 6.09708 26.3591 6.59395 26.3591 7.22156C26.3591 7.50922 26.3068 7.82303 26.1891 8.16299C26.0714 8.50295 25.8753 8.81676 25.6007 9.11749C25.3262 9.41823 24.9731 9.65359 24.5286 9.84972C24.084 10.0589 23.5348 10.1504 22.8811 10.1504Z" fill="#D7C68A" fill-opacity="0.7"/>
<path d="M34.4914 1.37687H28.9343V4.75032H34.1383V5.50869H28.9343V9.19595H34.5568V9.95432H28.0452V0.618494H34.4914V1.37687Z" fill="#D7C68A" fill-opacity="0.7"/>
<path d="M40.2024 0.618494C40.6208 0.618494 41 0.670796 41.3399 0.788474C41.6799 0.906153 41.9675 1.08921 42.216 1.31149C42.4644 1.54685 42.6475 1.8345 42.7782 2.16139C42.909 2.48827 42.9743 2.86746 42.9743 3.28587C42.9743 3.70429 42.909 4.08347 42.7782 4.41036C42.6475 4.73724 42.4644 5.0249 42.216 5.24718C41.9675 5.48254 41.6799 5.65252 41.3399 5.7702C41 5.88787 40.6208 5.95325 40.2024 5.95325H36.9466V9.95432H36.0575V0.618494H40.2024ZM40.0062 5.19488C40.6208 5.19488 41.1307 5.03797 41.5099 4.72416C41.8891 4.41036 42.0852 3.92657 42.0852 3.28587C42.0852 2.64518 41.8891 2.16139 41.5099 1.84758C41.1307 1.53377 40.6208 1.37687 40.0062 1.37687H36.9466V5.19488H40.0062Z" fill="#D7C68A" fill-opacity="0.7"/>
<path d="M45.4441 4.67186H50.988V0.618494H51.8772V9.95432H50.988V5.43024H45.4441V9.95432H44.5549V0.618494H45.4441V4.67186Z" fill="#D7C68A" fill-opacity="0.7"/>
<path d="M61.4104 9.95432H60.4559L59.3184 7.05158H55.0689L53.9444 9.95432H53.003L56.7556 0.618494H57.7493L61.4104 9.95432ZM55.3435 6.29321H59.0176L57.2132 1.50762L55.3435 6.29321Z" fill="#D7C68A" fill-opacity="0.7"/>
<path d="M64.8216 5.90095C64.4424 5.88787 64.0894 5.80942 63.7625 5.69174C63.4356 5.57407 63.1479 5.40409 62.9126 5.1818C62.6641 4.95952 62.4811 4.69801 62.3503 4.3842C62.2065 4.08347 62.1411 3.71736 62.1411 3.31202C62.1411 2.89361 62.2065 2.51443 62.3373 2.18754C62.468 1.86066 62.6641 1.573 62.9126 1.33764C63.161 1.11536 63.4487 0.932303 63.8017 0.801549C64.1417 0.683871 64.5339 0.618494 64.9654 0.618494H68.8749V9.95432H67.9858V5.95325H65.8938L62.7818 9.95432H61.6312L64.8216 5.90095ZM65.1615 1.37687C64.5078 1.37687 63.9848 1.54685 63.6056 1.88681C63.2264 2.23984 63.0303 2.71056 63.0303 3.31202C63.0303 3.91349 63.2264 4.37113 63.6056 4.69801C63.9848 5.0249 64.5078 5.19488 65.1615 5.19488H67.9858V1.37687H65.1615Z" fill="#D7C68A" fill-opacity="0.7"/>
<path d="M78.305 10.1374C77.7689 10.1374 77.272 10.0589 76.8274 9.90202C76.3829 9.74511 75.9906 9.52283 75.6637 9.2221C75.3368 8.92136 75.0623 8.56833 74.84 8.13684C74.6177 7.71843 74.4739 7.24771 74.3954 6.71162H75.2715C75.3368 7.10389 75.4545 7.45692 75.6114 7.78381C75.7683 8.11069 75.9775 8.39835 76.226 8.63371C76.4744 8.88214 76.7751 9.06519 77.1282 9.19595C77.4681 9.3267 77.8604 9.39208 78.2919 9.39208C78.8018 9.39208 79.2595 9.30055 79.6779 9.11749C80.0832 8.93444 80.4493 8.67293 80.7501 8.33297C81.0508 8.00609 81.2861 7.60075 81.4561 7.11696C81.6261 6.63317 81.7307 6.09708 81.7438 5.50869H76.9974V4.76339H81.7176C81.6784 4.2273 81.5607 3.73044 81.3777 3.28587C81.1946 2.85438 80.9593 2.4752 80.6585 2.16139C80.3578 1.84758 80.0178 1.59915 79.6256 1.42917C79.2202 1.25919 78.7887 1.18074 78.305 1.18074C77.5335 1.18074 76.8928 1.37687 76.3698 1.7822C75.8468 2.18754 75.5068 2.73671 75.363 3.44278H74.4739C74.5262 2.97206 74.67 2.55365 74.9054 2.17446C75.1407 1.79528 75.4284 1.48147 75.7814 1.21996C76.1344 0.958454 76.5267 0.762324 76.9582 0.618494C77.3897 0.48774 77.8342 0.422363 78.2788 0.422363C78.9849 0.422363 79.6125 0.553117 80.1486 0.814624C80.6847 1.08921 81.1423 1.44224 81.5084 1.88681C81.8745 2.33137 82.1491 2.85438 82.3453 3.44278C82.5283 4.03117 82.6198 4.65879 82.6198 5.31256C82.6198 6.04478 82.5152 6.71162 82.306 7.30002C82.0968 7.88841 81.8092 8.39835 81.43 8.81676C81.0508 9.24825 80.5931 9.57513 80.0701 9.79741C79.534 10.0197 78.9456 10.1374 78.305 10.1374Z" fill="#D7C68A" fill-opacity="0.7"/>
<path d="M91.4629 9.95432H90.5737V1.37687H85.1605V9.95432H84.2714V0.618494H91.4629V9.95432Z" fill="#D7C68A" fill-opacity="0.7"/>
<path d="M94.5008 8.99982L99.8617 0.618494H101.012V9.95432H100.123V1.573L94.7623 9.95432H93.6116V0.618494H94.5008V8.99982Z" fill="#D7C68A" fill-opacity="0.7"/>
<path d="M102.921 10.0328C102.868 10.0328 102.803 10.0328 102.738 10.0197C102.659 10.0066 102.581 10.0066 102.502 9.99354C102.424 9.98047 102.359 9.98047 102.293 9.96739C102.228 9.94124 102.189 9.94124 102.162 9.92817V9.1698C102.228 9.20902 102.345 9.2221 102.489 9.23517C102.633 9.24825 102.738 9.26132 102.803 9.26132C102.895 9.26132 103.012 9.24825 103.143 9.2221C103.274 9.20902 103.418 9.13057 103.561 8.98674C103.705 8.85599 103.849 8.64678 103.993 8.34605C104.137 8.05839 104.254 7.63998 104.372 7.09081C104.477 6.55472 104.568 5.86172 104.634 5.0249C104.699 4.18807 104.738 3.15512 104.738 1.93911V0.618494H110.478V9.95432H109.589V1.37687H105.601V1.88681C105.601 3.24665 105.562 4.38421 105.47 5.31256C105.379 6.24091 105.261 7.01236 105.117 7.61383C104.974 8.22837 104.804 8.68601 104.621 9.01289C104.424 9.33978 104.241 9.58821 104.045 9.73204C103.849 9.87587 103.653 9.96739 103.457 9.99354C103.261 10.0197 103.078 10.0328 102.921 10.0328Z" fill="#D7C68A" fill-opacity="0.7"/>
<path d="M114.925 5.90095C114.546 5.88787 114.193 5.80942 113.866 5.69174C113.539 5.57407 113.252 5.40409 113.016 5.1818C112.768 4.95952 112.585 4.69801 112.454 4.3842C112.31 4.08347 112.245 3.71736 112.245 3.31202C112.245 2.89361 112.31 2.51443 112.441 2.18754C112.572 1.86066 112.768 1.573 113.016 1.33764C113.265 1.11536 113.552 0.932303 113.905 0.801549C114.245 0.683871 114.638 0.618494 115.069 0.618494H118.979V9.95432H118.09V5.95325H115.998L112.886 9.95432H111.735L114.925 5.90095ZM115.265 1.37687C114.612 1.37687 114.089 1.54685 113.709 1.88681C113.33 2.23984 113.134 2.71056 113.134 3.31202C113.134 3.91349 113.33 4.37113 113.709 4.69801C114.089 5.0249 114.612 5.19488 115.265 5.19488H118.09V1.37687H115.265Z" fill="#D7C68A" fill-opacity="0.7"/>
<path d="M121.122 0.618494H122.011V9.19595H127.424V0.618494H128.313V9.19595H129.424V12.4386H128.535V9.95432H121.122V0.618494Z" fill="#D7C68A" fill-opacity="0.7"/>
<path d="M131.619 8.99982L136.98 0.618494H138.131V9.95432H137.241V1.573L131.881 9.95432H130.73V0.618494H131.619V8.99982Z" fill="#D7C68A" fill-opacity="0.7"/>
<path d="M142.576 5.90095C142.196 5.88787 141.843 5.80942 141.517 5.69174C141.19 5.57407 140.902 5.40409 140.667 5.1818C140.418 4.95952 140.235 4.69801 140.104 4.3842C139.961 4.08347 139.895 3.71736 139.895 3.31202C139.895 2.89361 139.961 2.51443 140.091 2.18754C140.222 1.86066 140.418 1.573 140.667 1.33764C140.915 1.11536 141.203 0.932303 141.556 0.801549C141.896 0.683871 142.288 0.618494 142.719 0.618494H146.629V9.95432H145.74V5.95325H143.648L140.536 9.95432H139.385L142.576 5.90095ZM142.916 1.37687C142.262 1.37687 141.739 1.54685 141.36 1.88681C140.98 2.23984 140.784 2.71056 140.784 3.31202C140.784 3.91349 140.98 4.37113 141.36 4.69801C141.739 5.0249 142.262 5.19488 142.916 5.19488H145.74V1.37687H142.916Z" fill="#D7C68A" fill-opacity="0.7"/>
</svg>
