<svg width="40" height="40" viewBox="0 0 40 40" fill="none" xmlns="http://www.w3.org/2000/svg">
<path d="M9.16667 12.499L4.16667 13.3324C5.52501 7.0707 9.47 5.00487 13.3333 4.99904C15.8308 4.99487 18.2933 5.85404 20 6.66571C21.7067 5.85404 24.1667 4.99904 26.6667 4.99904C30.5092 4.99904 34.475 7.0707 35.8333 13.3324L30.8333 12.499C31.2992 14.249 32.3233 17.3257 30.8333 19.999C28.35 17.7715 22.6083 14.4082 20 12.499C17.3917 14.4082 11.65 17.7715 9.16667 19.999C7.67667 17.3265 8.70084 14.249 9.16667 12.499Z" stroke="#9000FF" stroke-width="3" stroke-linecap="round" stroke-linejoin="round"/>
<path d="M20 12.5C19.3708 15.7408 18.4908 23.7775 20 30" stroke="#9000FF" stroke-width="3" stroke-linecap="round" stroke-linejoin="round"/>
<path d="M10 35H30C26.0108 31.1792 24.1667 30.0042 20 30C15.8333 29.9958 11.5767 32.8183 10 35Z" stroke="#9000FF" stroke-width="3" stroke-linecap="round" stroke-linejoin="round"/>
</svg>
