<svg width="168" height="19" viewBox="0 0 168 19" fill="none" xmlns="http://www.w3.org/2000/svg">
<path d="M14.6965 6.32373H13.8407C13.5791 4.77846 13.2463 3.8513 12.5807 2.90036C11.6059 1.49773 10.132 0.68943 8.58672 0.68943C7.06522 0.68943 5.68637 1.47395 4.90184 2.78149C3.97468 4.32676 3.52298 6.39505 3.52298 8.98636C3.52298 14.2641 5.66259 17.521 9.15729 17.521C10.9403 17.521 12.6282 16.6414 13.7931 15.0724C14.1973 14.5256 14.4825 14.0025 14.8391 13.1229L15.5286 13.5033C14.2448 16.8791 11.9388 18.5195 8.39654 18.5195C6.11429 18.5195 3.99845 17.7112 2.54827 16.2848C0.955453 14.7158 0.0996094 12.3146 0.0996094 9.43805C0.0996094 3.70866 3.38034 0 8.46786 0C9.70407 0 10.2271 0.0950939 12.4142 0.68943C12.7471 0.784523 13.0561 0.832071 13.4127 0.832071C13.7693 0.832071 13.9357 0.784523 14.6965 0.523016V6.32373Z" fill="#D7C68A"/>
<path d="M17.6019 18.1391V17.521C19.6464 17.4497 19.8603 17.212 19.8603 15.0486V3.44715C19.8603 1.28377 19.6702 1.04603 17.697 0.974711V0.356602H25.1143V0.974711C23.1411 1.04603 22.9509 1.28377 22.9509 3.44715V17.4497H25.138C27.135 17.4497 28.4663 16.8554 29.3222 15.6191C29.8452 14.8108 30.1305 14.0501 30.4395 12.4573L31.2716 12.5524L30.7248 18.1391H17.6019Z" fill="#D7C68A"/>
<path d="M32.6803 18.1391V17.521C34.606 17.4735 34.82 17.2357 34.82 15.0486V3.44715C34.82 1.25999 34.5822 0.998484 32.6803 0.974711V0.356602H45.732L46.1599 5.42034L45.3278 5.44412C44.8286 2.13961 43.5686 1.04603 40.2165 1.04603H37.8867V8.51089H39.5984C42.1659 8.51089 42.7841 8.01165 43.0456 5.77694H43.8063V11.9818H43.0456C42.7603 9.67579 42.1659 9.20032 39.5984 9.20032H37.8867V17.4497H40.5018C43.7112 17.4497 45.0425 16.2135 45.732 12.5048L46.5165 12.5999L46.0172 18.1391H32.6803Z" fill="#D7C68A"/>
<path d="M53.4145 12.1244L52.7488 13.9312C52.3922 14.8346 52.2258 15.5716 52.2258 16.1184C52.2258 17.0455 52.8915 17.4735 54.4605 17.521V18.1391H48.3508V17.521C49.896 17.4972 50.7519 16.5701 51.8217 13.7648L56.8854 0.356602L58.6446 0.166415L63.8273 14.7395C64.374 16.2135 64.8257 16.9742 65.3725 17.2595C65.634 17.3784 65.848 17.4259 66.6325 17.521V18.1391H58.8824V17.521C60.3801 17.4735 60.9269 17.1644 60.9269 16.3799C60.9269 16.3561 60.9269 16.3323 60.9269 16.3086C60.9031 15.9282 60.7843 15.3339 60.5703 14.7395L59.6669 12.1244H53.4145ZM59.3578 11.1973L56.6477 3.47092L53.7473 11.1973H59.3578Z" fill="#D7C68A"/>
<path d="M71.1996 3.06677V13.5746C71.1996 16.7127 71.6275 17.3784 73.6721 17.4972V18.1391H67.7049V17.4972C69.7257 17.4021 70.2249 16.6176 70.2249 13.3844V3.94639C70.2249 1.61659 69.8208 1.11735 67.9189 0.974711V0.356602H72.8875L82.5871 14.0501V5.11129C82.5871 3.32828 82.4682 2.44866 82.1354 1.90188C81.7788 1.28377 81.2795 1.0698 80.0671 0.998484V0.356602H86.0818V0.998484C84.9407 1.04603 84.4414 1.28377 84.061 1.90188C83.7044 2.47244 83.5618 3.42337 83.5618 4.94487V18.2342H81.8026L71.1996 3.06677Z" fill="#D7C68A"/>
<path d="M96.0356 18.1391V17.521C97.9613 17.4735 98.1752 17.2357 98.1752 15.0486V3.44715C98.1752 1.25999 97.9375 0.998484 96.0356 0.974711V0.356602H103.477C108.184 0.356602 110.3 1.61659 110.3 4.39808C110.3 6.91807 108.826 8.13051 105.188 8.53466V8.70107C108.992 8.89126 110.918 10.4365 110.918 13.3131C110.918 16.7365 108.659 18.1391 103.073 18.1391H96.0356ZM101.242 8.27315H103.239C105.711 8.27315 107.019 6.98939 107.019 4.54073C107.019 2.21093 105.688 1.04603 103.073 1.04603H101.242V8.27315ZM101.242 17.4497H103.049C106.02 17.4497 107.518 16.0233 107.518 13.1943C107.518 11.6014 106.971 10.3414 105.973 9.67579C105.355 9.27164 104.333 9.0339 103.168 9.0339H101.242V17.4497Z" fill="#D7C68A"/>
<path d="M113.844 9.24786C113.844 6.75165 114.558 4.4694 115.865 2.80527C117.244 1.02226 119.574 0 122.236 0C124.875 0 127.157 0.998484 128.584 2.80527C129.891 4.42186 130.605 6.75165 130.605 9.24786C130.605 11.7678 129.891 14.0976 128.584 15.7142C127.157 17.4972 124.875 18.5195 122.236 18.5195C119.597 18.5195 117.268 17.4972 115.865 15.7142C114.581 14.0976 113.844 11.7441 113.844 9.24786ZM117.315 9.24786C117.315 12.0294 117.696 14.0025 118.528 15.6429C119.288 17.1169 120.548 17.8776 122.236 17.8776C123.9 17.8776 125.16 17.1169 125.921 15.6429C126.753 14.0263 127.134 12.0531 127.134 9.24786C127.134 6.46637 126.753 4.49318 125.921 2.87658C125.137 1.37886 123.924 0.641883 122.236 0.641883C120.548 0.641883 119.288 1.40263 118.528 2.87658C117.696 4.49318 117.315 6.51392 117.315 9.24786Z" fill="#D7C68A"/>
<path d="M133.111 18.1391V17.521C135.037 17.4735 135.251 17.2357 135.251 15.0486V3.44715C135.251 1.25999 135.013 0.998484 133.111 0.974711V0.356602H140.267C142.977 0.356602 145.093 0.784523 146.495 1.66414C148.849 3.09055 149.966 5.42034 149.966 8.96258C149.966 12.8139 148.73 15.524 146.305 16.8791C144.831 17.735 142.763 18.1391 139.982 18.1391H133.111ZM138.341 17.4497H140.029C142.074 17.4497 143.785 16.8554 144.76 15.8093C145.996 14.5256 146.638 12.2909 146.638 9.36673C146.638 6.70411 146.139 4.73091 145.117 3.25696C144.094 1.78301 142.288 1.04603 139.768 1.04603H138.341V17.4497Z" fill="#D7C68A"/>
<path d="M160.535 9.79465V15.0486C160.535 17.2357 160.749 17.4497 162.96 17.521V18.1391H155.02V17.521C157.231 17.4497 157.445 17.2357 157.445 15.0486V10.5316L153.07 3.32828C152 1.56905 151.477 1.11735 150.36 0.974711V0.356602H157.849V0.974711C156.565 1.04603 156.042 1.30754 156.042 1.94942C156.042 2.35357 156.185 2.6864 156.803 3.68488L160.012 9.0339L163.222 3.89884C163.649 3.16187 163.887 2.56753 163.887 2.13961C163.887 1.71169 163.578 1.35509 163.103 1.18867C162.699 1.0698 162.437 1.02226 161.724 0.974711V0.356602H168V0.974711C166.455 1.14113 165.551 1.8781 164.149 4.08903L160.535 9.79465Z" fill="#D7C68A"/>
</svg>
